<svg width="70" height="70" viewBox="0 0 70 70" fill="none" xmlns="http://www.w3.org/2000/svg">
<path d="M60.1432 24.6432C57.0807 11.1682 45.3265 5.10156 35.0015 5.10156C35.0015 5.10156 35.0015 5.10156 34.9723 5.10156C24.6765 5.10156 12.8932 11.1391 9.83067 24.6141C6.41817 39.6641 15.6348 52.4099 23.9765 60.4307C27.0682 63.4057 31.0348 64.8932 35.0015 64.8932C38.9682 64.8932 42.9348 63.4057 45.9973 60.4307C54.339 52.4099 63.5557 39.6932 60.1432 24.6432ZM35.0015 39.2557C29.9265 39.2557 25.814 35.1432 25.814 30.0682C25.814 24.9932 29.9265 20.8807 35.0015 20.8807C40.0765 20.8807 44.189 24.9932 44.189 30.0682C44.189 35.1432 40.0765 39.2557 35.0015 39.2557Z" fill="white"/>
</svg>
